# xmcd CD database file
# Copyright (C) 1995-1998 Ti Kan
#
# Track frame offsets:
#	150
#	56982
#	87632
#	107444
#	182399
#	203627
#	236982
#
# Disc length: 4068 seconds
#
# Revision: 1
# Processed by: cddbd v1.5.1PL0 Copyright (c) Steve Scherf et al.
# Submitted via: CDex 1.30Release
#
DISCID=5c0fe207
DTITLE=CREAM - Those were the Days CD 3
DYEAR=1997
DGENRE=Blues
TTITLE0=N.S.U.
TTITLE1=Sleepy Time Time
TTITLE2=Crossroads
TTITLE3=Spoonful
TTITLE4=Tales of brave Ulysses
TTITLE5=Sunshine of your Love
TTITLE6=Sweet Wine
EXTD=YEAR: 1997 ID3G:   0
EXTT0=
EXTT1=
EXTT2=
EXTT3=
EXTT4=
EXTT5=
EXTT6=
PLAYORDER=
